<svg height="36" width="36" xmlns="http://www.w3.org/2000/svg" xmlns:xlink="http://www.w3.org/1999/xlink"><defs><path id="a" d="M27.063.774C25.04.306 21.711 0 17.95 0c-3.762 0-7.09.306-9.115.774A10.468 10.468 0 0 0 .772 8.86C.305 10.89 0 14.227 0 18s.305 7.11.772 9.14a10.468 10.468 0 0 0 8.062 8.086c2.025.468 5.353.774 9.115.774 3.762 0 7.09-.306 9.114-.774a10.468 10.468 0 0 0 8.062-8.085c.468-2.03.772-5.368.772-9.141s-.304-7.11-.772-9.14A10.468 10.468 0 0 0 27.063.773z"/><mask id="b" fill="#fff"><use fill-rule="evenodd" xlink:href="#a"/></mask></defs><g fill="none" fill-rule="evenodd"><use fill="#00b388" xlink:href="#a"/><path d="M22.262 27.635a2.721 2.721 0 0 0-1.944-1.61c-.526-.123-1.391-.202-2.37-.202-.977 0-1.843.08-2.369.201a2.721 2.721 0 0 0-1.936 1.593.699.699 0 0 1-.707.421l-.193-.018c-1.408-.14-2.514-.337-3.157-.565a1.142 1.142 0 0 1-.735-1.219c.11-1.47 1-4.909 2.329-8.835 1.519-4.488 3.107-8.121 3.824-8.83a1.538 1.538 0 0 1 .613-.392c.47-.16 1.338-.266 2.33-.266.995 0 1.862.107 2.332.266l.008.003a1.54 1.54 0 0 1 .607.39c.716.708 2.305 4.341 3.824 8.83 1.329 3.925 2.218 7.365 2.328 8.834a.537.537 0 0 0 .004.05 4.358 4.358 0 0 1 .004.097 1.142 1.142 0 0 1-.743 1.072c-.642.228-1.747.424-3.153.565l-.22.02a.666.666 0 0 1-.676-.405z" fill="#fff" fill-rule="nonzero" mask="url(#b)"/></g></svg>