<svg xmlns="http://www.w3.org/2000/svg" width="286" height="56" viewBox="0 0 286 56">
  <g fill="#769179" transform="translate(19 16)">
    <path d="M13.7,1 L0,24.5 L4.9,24.5 L7.9,19.4 L24.4,19.4 L27.4,24.5 L32.3,24.5 L18.6,1 L13.7,1 Z M10.8,14.4 L16.1,4.8 L21.5,14.4 L22.1,15.4 L10.2,15.4 L10.8,14.4 Z"/>
    <polygon points="64 1 50.5 24.5 45.6 24.5 32 1 37 1 42.7 11 48 20.7 53.4 11 59.1 1"/>
    <path d="M83.643247 20.918327C91.343247 20.918327 94.843247 17.518327 94.843247 12.718327 94.843247 7.918327 91.343247 4.518327 83.643247 4.518327 76.043247 4.518327 72.443247 7.918327 72.443247 12.718327 72.443247 17.518327 76.043247 20.918327 83.643247 20.918327M83.643247.518327C93.943247.518327 99.243247 5.718327 99.243247 12.718327 99.243247 19.718327 93.943247 24.918327 83.643247 24.918327 73.443247 24.918327 68.143247 19.718327 68.143247 12.718327 68.143247 5.718327 73.443247.518327 83.643247.518327M135.199344 23.118327C133.699344 23.618327 129.599344 24.918327 123.399344 24.918327 111.399344 24.918327 106.299344 19.718327 106.299344 12.718327 106.299344 5.718327 111.399344.518327 123.399344.518327 129.599344.518327 133.699344 1.818327 135.199344 2.318327L134.199344 6.218327C131.199344 5.318327 127.599344 4.518327 123.399344 4.518327 114.199344 4.518327 110.699344 7.918327 110.699344 12.718327 110.699344 17.518327 114.199344 20.918327 123.399344 20.918327 127.599344 20.918327 131.199344 20.118327 134.199344 19.218327L135.199344 23.118327zM151.9 14.4L151.3 15.4 163.2 15.4 162.6 14.4 157.2 4.8 151.9 14.4zM173.4 24.5L168.5 24.5 165.5 19.4 149 19.4 146 24.5 141.1 24.5 154.8 1 159.7 1 173.4 24.5zM184.5 5L184.5 20.4 191.6 20.4C200.8 20.4 204.4 17.5 204.4 12.7 204.4 7.9 200.8 5 191.6 5L184.5 5zM180.3 24.5L180.3 1 191.6 1C203.7 1 208.7 5.7 208.7 12.7 208.7 19.7 203.7 24.5 191.6 24.5L180.3 24.5zM232.164602 20.918327C239.764602 20.918327 243.364602 17.518327 243.364602 12.718327 243.364602 7.918327 239.764602 4.518327 232.164602 4.518327 224.564602 4.518327 220.964602 7.918327 220.964602 12.718327 220.964602 17.518327 224.564602 20.918327 232.164602 20.918327M232.164602.518327C242.464602.518327 247.764602 5.718327 247.764602 12.718327 247.764602 19.718327 242.464602 24.918327 232.164602 24.918327 221.964602 24.918327 216.564602 19.718327 216.564602 12.718327 216.564602 5.718327 221.964602.518327 232.164602.518327"/>
    <path d="M233.9,12.8 C233.9,11.1 232.6,9.9 230,9.9 C227.3,9.9 226.1,11.1 226.1,12.8 C226.1,14.5 227.3,15.7 230,15.7 C232.6,15.7 233.9,14.5 233.9,12.8 Z"/>
  </g>
</svg>
