<svg height="395" width="761" xmlns="http://www.w3.org/2000/svg"><g fill="none" fill-rule="evenodd" opacity=".32" stroke="#6e49e5" stroke-width="1.5"><g stroke-linecap="round"><path d="M100 73h432v391H100zM37 346h63v120H37z"/><path d="M164 129h80v80h-80zm112 0h80v80h-80zm112 0h80v80h-80zM164 241h80v80h-80zm112 0h80v80h-80zm112 0h80v80h-80zM164 353h80v80h-80z"/><path d="M276 353h80v80h-80z" fill="#fcfdfd"/><path d="M388 353h80v80h-80z"/></g><g stroke-linecap="square"><path d="M164 235v-8m-6 14h-8m100 0h8m-14-6v-8"/></g><g stroke-linecap="square"><path d="M164 327v8m-6-14h-8m100 0h8m-14 6v8"/></g><path d="M100 73h432v16H100z" stroke-linecap="round"/><path d="M340 80.5h-48" stroke-linecap="square"/><g stroke-linecap="round" stroke-linejoin="round"><path d="M516 73h16v16z"/><path d="M516 73h16l-16 16z"/></g><path d="M104 1l16 16v112H8l-16-16z" fill="#fcfdfd" stroke-linecap="round" stroke-linejoin="round"/><path d="M104 113l14.873 14.873" stroke-linecap="square"/><g stroke-linecap="round" transform="translate(-8 1)"><path d="M0 0h112v112H0z" fill="#fcfdfd"/><path d="M64 119.5V280h108"/><circle cx="56" cy="56" r="40"/><path d="M96 56c0-22.091-17.909-40-40-40S16 33.909 16 56z"/></g><g stroke-linecap="round"><path d="M695 398h65v-64h-65zm-75 0h65v-64h-65z"/><path d="M634.665 368.216L645.449 379l27-27M714 379l27-27m0 27l-27-27m-19 46h-10v-64h10z"/></g></g></svg>