<svg xmlns="http://www.w3.org/2000/svg" width="286" height="56" viewBox="0 0 286 56">
  <g fill="none" transform="translate(10 8)">
    <path fill="#2ECB70" d="M32.7891089,4.13333333 L55.1752475,4.13333333 C56.6237624,4.13333333 57.8089109,5.33333333 57.8089109,6.8 L57.8089109,29.4666667 C57.8089109,30.9333333 56.6237624,32.1333333 55.1752475,32.1333333 L32.7891089,32.1333333 C31.3405941,32.1333333 30.1554455,30.9333333 30.1554455,29.4666667 L30.1554455,6.8 C30.1554455,5.33333333 31.3405941,4.13333333 32.7891089,4.13333333 Z"/>
    <path fill="#313E48" d="M43.4554455 15.0666667C43.4554455 15.7333333 43.1920792 16.2666667 42.6653465 16.6666667L42.1386139 17.0666667C41.7435644 17.3333333 41.480198 17.7333333 41.480198 18.1333333L41.480198 26.6666667C41.480198 27.3333333 40.9534653 27.7333333 40.4267327 27.7333333 40.4267327 27.7333333 40.4267327 27.7333333 40.4267327 27.7333333L40.0316832 27.7333333C39.3732673 27.7333333 38.9782178 27.2 38.9782178 26.6666667 38.9782178 26.6666667 38.9782178 26.6666667 38.9782178 26.6666667L38.9782178 18.1333333C38.9782178 17.7333333 38.7148515 17.3333333 38.319802 17.0666667L37.7930693 16.6666667C37.2663366 16.4 37.0029703 15.7333333 37.0029703 15.0666667L37.529703 8.93333333C37.529703 8.66666667 37.6613861 8.53333333 37.9247525 8.53333333L38.1881188 8.53333333C38.4514851 8.53333333 38.5831683 8.66666667 38.5831683 8.93333333 38.5831683 8.93333333 38.5831683 8.93333333 38.5831683 8.93333333L38.5831683 13.6C38.5831683 13.7333333 38.7148515 13.8666667 38.8465347 13.8666667 38.8465347 13.8666667 38.8465347 13.8666667 38.8465347 13.8666667L39.109901 13.8666667C39.2415842 13.8666667 39.3732673 13.7333333 39.3732673 13.6L39.5049505 8.93333333C39.5049505 8.66666667 39.6366337 8.53333333 39.9 8.53333333L40.2950495 8.53333333C40.5584158 8.53333333 40.690099 8.66666667 40.690099 8.93333333L40.9534653 13.6C40.9534653 13.7333333 41.0851485 13.8666667 41.2168317 13.8666667L41.6118812 13.8666667C41.7435644 13.8666667 41.8752475 13.7333333 41.8752475 13.6L41.8752475 8.93333333C41.8752475 8.66666667 42.0069307 8.53333333 42.270297 8.53333333L42.5336634 8.53333333C42.7970297 8.53333333 42.9287129 8.66666667 42.9287129 8.93333333L43.4554455 15.0666667zM48.5910891 8.53333333C47.5376238 8.66666667 46.6158416 9.6 46.6158416 10.8L46.6158416 17.7333333C46.6158416 18.5333333 47.1425743 19.3333333 47.8009901 19.7333333 48.0643564 19.8666667 48.1960396 20.1333333 48.3277228 20.4L48.3277228 26.5333333C48.3277228 27.2 48.8544554 27.6 49.3811881 27.6 49.3811881 27.6 49.3811881 27.6 49.3811881 27.6L49.7762376 27.6C50.4346535 27.6 50.829703 27.0666667 50.829703 26.5333333 50.829703 26.5333333 50.829703 26.5333333 50.829703 26.5333333L50.829703 10.8C50.829703 9.6 49.9079208 8.66666667 48.7227723 8.66666667 48.7227723 8.53333333 48.5910891 8.53333333 48.5910891 8.53333333z"/>
    <path fill="#2EAAE2" d="M63.0762376,4.13333333 L85.4623762,4.13333333 C86.9108911,4.13333333 88.0960396,5.33333333 88.0960396,6.8 L88.0960396,29.4666667 C88.0960396,30.9333333 86.9108911,32.1333333 85.4623762,32.1333333 L63.0762376,32.1333333 C61.6277228,32.1333333 60.4425743,30.9333333 60.4425743,29.4666667 L60.4425743,6.8 C60.4425743,5.33333333 61.6277228,4.13333333 63.0762376,4.13333333 Z"/>
    <path fill="#313E48" d="M80.8534653,26.1333333 C80.9851485,26 81.1168317,25.7333333 80.9851485,25.4666667 C80.7217822,24.1333333 79.4049505,18.1333333 79.009901,16.2666667 C78.8782178,16 79.009901,15.7333333 79.1415842,15.6 C79.8,14.9333333 82.4336634,12.4 83.0920792,11.6 C83.750495,10.9333333 83.6188119,10 82.960396,9.33333333 C82.3019802,8.8 81.380198,8.8 80.7217822,9.33333333 C79.9316832,10.1333333 77.429703,12.6666667 76.7712871,13.3333333 C76.639604,13.4666667 76.3762376,13.6 76.1128713,13.4666667 C74.2693069,13.0666667 68.3435644,11.7333333 67.0267327,11.4666667 C66.7633663,11.3333333 66.5,11.4666667 66.3683168,11.6 C66.1049505,12 65.8415842,12.2666667 65.4465347,12.6666667 C65.1831683,13.0666667 65.1831683,13.3333333 65.5782178,13.6 C67.1584158,14.4 71.6356436,16.5333333 72.2940594,16.9333333 C72.6891089,17.2 72.8207921,17.3333333 72.4257426,17.7333333 C71.7673267,18.6666667 70.5821782,20 69.7920792,20.9333333 C69.7920792,21.0666667 69.5287129,21.3333333 69.2653465,21.3333333 C68.6069307,21.2 67.9485149,21.2 67.4217822,21.0666667 C67.1584158,21.0666667 66.8950495,21.0666667 66.7633663,21.3333333 C66.5,21.6 66.3683168,21.7333333 66.1049505,22 C65.8415842,22.2666667 65.8415842,22.6666667 66.2366337,22.8 C66.8950495,23.2 67.6851485,23.6 68.3435644,24 C68.4752475,24 68.4752475,24.1333333 68.6069307,24.1333333 C68.7386139,24.2666667 68.7386139,24.2666667 68.7386139,24.4 C69.1336634,25.0666667 69.5287129,25.8666667 69.9237624,26.5333333 C70.0554455,26.9333333 70.450495,26.9333333 70.7138614,26.6666667 C70.9772277,26.4 71.1089109,26.2666667 71.3722772,26 C71.5039604,25.8666667 71.6356436,25.6 71.6356436,25.3333333 C71.5039604,24.8 71.5039604,24.1333333 71.3722772,23.4666667 C71.2405941,23.0666667 71.5039604,22.9333333 71.7673267,22.6666667 C72.6891089,21.8666667 74.0059406,20.8 74.9277228,20 C75.3227723,19.7333333 75.4544554,19.7333333 75.7178218,20.1333333 C76.1128713,20.8 78.0881188,25.3333333 79.009901,26.9333333 C79.2732673,27.3333333 79.5366337,27.4666667 79.9316832,27.0666667 C80.3267327,26.6666667 80.4584158,26.5333333 80.8534653,26.1333333 Z"/>
    <polygon fill="#333" points="90.598 32.133 109.692 32.133 109.692 26.4 97.577 26.4 97.577 20.933 107.849 20.933 107.849 15.067 97.577 15.067 97.577 9.867 109.692 9.867 109.692 4.133 90.598 4.133"/>
    <path fill="#333" d="M147.353465 10C144.456436 10 142.349505 10.9333333 140.769307 13.3333333L140.637624 13.3333333 139.847525 10.6666667 134.711881 10.6666667 134.711881 39.8666667 141.29604 39.8666667 141.29604 30.6666667 141.427723 30.6666667C142.612871 32.1333333 144.588119 32.8 147.090099 32.8 152.884158 32.8 157.09802 27.7333333 157.09802 21.7333333L157.09802 20.9333333C156.966337 14.1333333 152.225743 10 147.353465 10zM145.641584 27.2C142.612871 27.2 141.164356 24.5333333 141.164356 21.3333333 141.164356 18.1333333 142.612871 15.6 145.641584 15.6 148.670297 15.6 150.118812 18.2666667 150.118812 21.4666667 149.987129 24.6666667 148.670297 27.2 145.641584 27.2L145.641584 27.2zM179.615842 20.6666667C179.615842 13.4666667 174.611881 10 169.081188 10 163.023762 10 158.151485 14.4 158.151485 21.2L158.151485 21.8666667C158.151485 28.8 163.418812 32.9333333 169.344554 32.9333333 174.216832 32.9333333 178.562376 30.5333333 179.615842 25.6L173.426733 25.6C172.768317 27.3333333 171.319802 27.8666667 169.607921 27.8666667 166.842574 27.8666667 165.262376 25.8666667 164.99901 23.2L179.615842 23.2C179.484158 22.5333333 179.615842 21.4666667 179.615842 20.6666667zM164.99901 18.6666667C165.394059 16.4 166.579208 14.6666667 169.212871 14.6666667 171.451485 14.6666667 172.9 16.2666667 172.9 18.6666667L164.99901 18.6666667zM193.574257 10C190.808911 10 188.833663 11.0666667 187.253465 13.4666667L187.121782 13.4666667 186.331683 10.6666667 181.19604 10.6666667 181.19604 32.1333333 187.911881 32.1333333 187.911881 19.6C187.911881 16.8 189.228713 15.4666667 191.335644 15.4666667 193.179208 15.4666667 194.627723 16.6666667 194.627723 19.6L194.627723 32.1333333 201.343564 32.1333333 201.343564 17.6C201.211881 13.4666667 198.709901 10 193.574257 10zM211.351485 18.2666667C210.166337 18 209.507921 17.4666667 209.507921 16.2666667 209.507921 15.3333333 210.166337 14.5333333 211.746535 14.5333333 213.458416 14.5333333 214.248515 15.3333333 214.248515 16.8L220.305941 16.8 220.305941 16.2666667C220.305941 11.7333333 216.223762 9.86666667 211.614851 9.86666667 207.532673 9.86666667 202.923762 11.6 202.923762 16.6666667L202.923762 17.0666667C202.923762 18.5333333 203.450495 20 204.50396 21.0666667 206.610891 23.2 209.90297 23.4666667 212.009901 24 213.853465 24.5333333 214.248515 25.3333333 214.248515 26.2666667 214.248515 27.6 213.19505 28.2666667 211.746535 28.2666667 209.90297 28.2666667 208.849505 27.2 208.717822 25.2L202.660396 25.2 202.660396 25.7333333C202.923762 30.9333333 206.874257 32.9333333 211.746535 32.9333333 216.092079 32.9333333 220.832673 30.9333333 220.832673 25.8666667L220.832673 25.4666667C220.832673 24 220.305941 22.5333333 219.384158 21.4666667 217.277228 19.0666667 213.985149 18.6666667 211.351485 18.2666667z"/>
    <rect width="6.716" height="21.467" x="222.018" y="10.533" fill="#333"/>
    <polygon fill="#333" points="133.263 10.533 125.889 10.533 122.334 16 118.778 10.533 111.141 10.533 118.383 20.8 110.087 32.133 117.593 32.133 122.07 25.6 126.548 32.133 134.185 32.133 126.021 20.533"/>
    <path fill="#333" d="M225.441584.133333333C223.20297.133333333 221.491089 2 221.491089 4.13333333 221.491089 6.26666667 223.334653 8.13333333 225.441584 8.13333333 227.680198 8.13333333 229.392079 6.26666667 229.392079 4.13333333 229.392079 4.13333333 229.392079 4.13333333 229.392079 4.13333333 229.392079 2 227.548515.133333333 225.441584.133333333 225.441584.133333333 225.441584.133333333 225.441584.133333333zM240.848515 10.5333333L240.848515 9.86666667C240.848515 8 242.033663 6.26666667 244.140594 6.13333333 244.40396 6.13333333 246.115842 6.13333333 246.115842 6.13333333L246.115842.133333333 243.613861.133333333C237.819802.266666667 234.132673 4.66666667 234.132673 10.2666667L234.132673 10.5333333 230.182178 10.5333333 230.182178 15.7333333 234.132673 15.7333333 234.132673 32.1333333 240.848515 32.1333333 240.848515 15.7333333 245.194059 15.7333333 250.856436 30.6666667 247.037624 39.8666667 254.016832 39.8666667 266 10.5333333 259.020792 10.5333333 254.411881 23.4666667 250.19802 10.5333333 240.848515 10.5333333z"/>
    <polygon fill="#333" points="90.598 32.133 109.692 32.133 109.692 26.4 97.577 26.4 97.577 20.933 107.849 20.933 107.849 15.067 97.577 15.067 97.577 9.867 109.692 9.867 109.692 4.133 90.598 4.133"/>
    <path fill="#333" d="M147.353465 10C144.456436 10 142.349505 10.9333333 140.769307 13.3333333L140.637624 13.3333333 139.847525 10.6666667 134.711881 10.6666667 134.711881 39.8666667 141.29604 39.8666667 141.29604 30.6666667 141.427723 30.6666667C142.612871 32.1333333 144.588119 32.8 147.090099 32.8 152.884158 32.8 157.09802 27.7333333 157.09802 21.7333333L157.09802 20.9333333C156.966337 14.1333333 152.225743 10 147.353465 10zM145.641584 27.2C142.612871 27.2 141.164356 24.5333333 141.164356 21.3333333 141.164356 18.1333333 142.612871 15.6 145.641584 15.6 148.670297 15.6 150.118812 18.2666667 150.118812 21.4666667 149.987129 24.6666667 148.670297 27.2 145.641584 27.2L145.641584 27.2zM179.615842 20.6666667C179.615842 13.4666667 174.611881 10 169.081188 10 163.023762 10 158.151485 14.4 158.151485 21.2L158.151485 21.8666667C158.151485 28.8 163.418812 32.9333333 169.344554 32.9333333 174.216832 32.9333333 178.562376 30.5333333 179.615842 25.6L173.426733 25.6C172.768317 27.3333333 171.319802 27.8666667 169.607921 27.8666667 166.842574 27.8666667 165.262376 25.8666667 164.99901 23.2L179.615842 23.2C179.484158 22.5333333 179.615842 21.4666667 179.615842 20.6666667zM164.99901 18.6666667C165.394059 16.4 166.579208 14.6666667 169.212871 14.6666667 171.451485 14.6666667 172.9 16.2666667 172.9 18.6666667L164.99901 18.6666667zM193.574257 10C190.808911 10 188.833663 11.0666667 187.253465 13.4666667L187.121782 13.4666667 186.331683 10.6666667 181.19604 10.6666667 181.19604 32.1333333 187.911881 32.1333333 187.911881 19.6C187.911881 16.8 189.228713 15.4666667 191.335644 15.4666667 193.179208 15.4666667 194.627723 16.6666667 194.627723 19.6L194.627723 32.1333333 201.343564 32.1333333 201.343564 17.6C201.211881 13.4666667 198.709901 10 193.574257 10zM211.351485 18.2666667C210.166337 18 209.507921 17.4666667 209.507921 16.2666667 209.507921 15.3333333 210.166337 14.5333333 211.746535 14.5333333 213.458416 14.5333333 214.248515 15.3333333 214.248515 16.8L220.305941 16.8 220.305941 16.2666667C220.305941 11.7333333 216.223762 9.86666667 211.614851 9.86666667 207.532673 9.86666667 202.923762 11.6 202.923762 16.6666667L202.923762 17.0666667C202.923762 18.5333333 203.450495 20 204.50396 21.0666667 206.610891 23.2 209.90297 23.4666667 212.009901 24 213.853465 24.5333333 214.248515 25.3333333 214.248515 26.2666667 214.248515 27.6 213.19505 28.2666667 211.746535 28.2666667 209.90297 28.2666667 208.849505 27.2 208.717822 25.2L202.660396 25.2 202.660396 25.7333333C202.923762 30.9333333 206.874257 32.9333333 211.746535 32.9333333 216.092079 32.9333333 220.832673 30.9333333 220.832673 25.8666667L220.832673 25.4666667C220.832673 24 220.305941 22.5333333 219.384158 21.4666667 217.277228 19.0666667 213.985149 18.6666667 211.351485 18.2666667z"/>
    <rect width="6.716" height="21.467" x="222.018" y="10.533" fill="#333"/>
    <polygon fill="#333" points="133.263 10.533 125.889 10.533 122.334 16 118.778 10.533 111.141 10.533 118.383 20.8 110.087 32.133 117.593 32.133 122.07 25.6 126.548 32.133 134.185 32.133 126.021 20.533"/>
    <path fill="#333" d="M225.441584.133333333C223.20297.133333333 221.491089 2 221.491089 4.13333333 221.491089 6.26666667 223.334653 8.13333333 225.441584 8.13333333 227.680198 8.13333333 229.392079 6.26666667 229.392079 4.13333333 229.392079 4.13333333 229.392079 4.13333333 229.392079 4.13333333 229.392079 2 227.548515.133333333 225.441584.133333333 225.441584.133333333 225.441584.133333333 225.441584.133333333zM240.848515 10.5333333L240.848515 9.86666667C240.848515 8 242.033663 6.26666667 244.140594 6.13333333 244.40396 6.13333333 246.115842 6.13333333 246.115842 6.13333333L246.115842.133333333 243.613861.133333333C237.819802.266666667 234.132673 4.66666667 234.132673 10.2666667L234.132673 10.5333333 230.182178 10.5333333 230.182178 15.7333333 234.132673 15.7333333 234.132673 32.1333333 240.848515 32.1333333 240.848515 15.7333333 245.194059 15.7333333 250.856436 30.6666667 247.037624 39.8666667 254.016832 39.8666667 266 10.5333333 259.020792 10.5333333 254.411881 23.4666667 250.19802 10.5333333 240.848515 10.5333333z"/>
    <path fill="#FFC600" d="M2.63366337,4.13333333 L25.019802,4.13333333 C26.4683168,4.13333333 27.6534653,5.33333333 27.6534653,6.8 L27.6534653,29.4666667 C27.6534653,30.9333333 26.4683168,32.1333333 25.019802,32.1333333 L2.63366337,32.1333333 C1.18514851,32.1333333 0,30.9333333 0,29.4666667 L0,6.8 C0,5.33333333 1.18514851,4.13333333 2.63366337,4.13333333 Z"/>
    <path fill="#313E48" d="M23.9663366,14.9333333 C23.8346535,14.6666667 23.5712871,14.6666667 23.3079208,14.6666667 C22.9128713,14.6666667 22.5178218,14.6666667 22.1227723,14.6666667 C21.8594059,14.6666667 21.7277228,14.5333333 21.5960396,14.2666667 C21.3326733,13.4666667 20.8059406,12.2666667 20.4108911,11.4666667 C20.0158416,10.5333333 19.2257426,9.73333333 18.1722772,9.73333333 C16.7237624,9.73333333 10.6663366,9.73333333 9.21782178,9.73333333 C8.2960396,9.86666667 7.50594059,10.6666667 7.11089109,11.4666667 C6.71584158,12.2666667 6.32079208,13.3333333 5.92574257,14.2666667 C5.92574257,14.5333333 5.79405941,14.6666667 5.53069307,14.6666667 C5.13564356,14.6666667 4.74059406,14.6666667 4.34554455,14.6666667 C4.08217822,14.6666667 3.81881188,14.6666667 3.68712871,14.9333333 C3.55544554,15.2 3.55544554,15.6 3.81881188,15.8666667 C4.08217822,16.1333333 4.34554455,16.2666667 4.74059406,16.2666667 C5.13564356,16.2666667 5.13564356,16.5333333 5.0039604,16.8 C4.60891089,17.6 4.47722772,19.8666667 4.47722772,21.0666667 C4.47722772,22.4 4.47722772,24 4.47722772,25.4666667 C4.47722772,26.2666667 4.74059406,26.4 5.3990099,26.4 C6.05742574,26.4 7.11089109,26.4 7.9009901,26.4 C8.42772277,26.4 8.69108911,26 8.69108911,25.4666667 C8.69108911,25.0666667 8.69108911,24.4 8.69108911,24 C8.69108911,23.6 8.69108911,23.3333333 9.21782178,23.3333333 L18.4356436,23.3333333 C18.8306931,23.3333333 18.9623762,23.4666667 18.9623762,24 C18.9623762,24.4 18.9623762,25.0666667 18.9623762,25.4666667 C18.9623762,26 19.2257426,26.4 19.7524752,26.4 C20.4108911,26.4 21.5960396,26.4 22.2544554,26.4 C22.9128713,26.4 23.1762376,26.1333333 23.1762376,25.4666667 C23.1762376,24.1333333 23.1762376,22.5333333 23.1762376,21.0666667 C23.1762376,19.8666667 23.0445545,17.6 22.649505,16.8 C22.5178218,16.5333333 22.649505,16.4 22.9128713,16.2666667 C23.1762376,16.1333333 23.5712871,16.1333333 23.8346535,15.8666667 C24.0980198,15.6 24.0980198,15.3333333 23.9663366,14.9333333 Z M7.76930693,20.9333333 C6.97920792,20.9333333 6.45247525,20.4 6.45247525,19.7333333 C6.45247525,19.7333333 6.45247525,19.6 6.45247525,19.6 C6.45247525,18.8 6.97920792,18.1333333 7.76930693,18.1333333 C8.55940594,18.1333333 9.21782178,18.8 9.21782178,19.6 C9.21782178,20.2666667 8.55940594,20.8 7.76930693,20.9333333 C7.9009901,20.9333333 7.76930693,20.9333333 7.76930693,20.9333333 Z M7.9009901,16.4 C7.11089109,16.4 7.11089109,16.4 7.37425743,15.4666667 C7.63762376,14.5333333 7.9009901,13.7333333 8.16435644,12.9333333 C8.55940594,11.8666667 8.95445545,11.6 9.87623762,11.6 L17.5138614,11.6 C18.4356436,11.6 18.8306931,12 19.2257426,12.9333333 C19.4891089,13.7333333 19.7524752,14.6666667 20.0158416,15.4666667 C20.2792079,16.4 20.2792079,16.4 19.4891089,16.4 L7.9009901,16.4 Z M19.8841584,20.9333333 C19.0940594,20.9333333 18.5673267,20.4 18.5673267,19.6 C18.5673267,19.6 18.5673267,19.4666667 18.5673267,19.4666667 C18.5673267,18.6666667 19.0940594,18 19.8841584,18 C20.8059406,18 21.3326733,18.5333333 21.2009901,19.4666667 C21.2009901,20.2666667 20.6742574,20.8 19.8841584,20.9333333 C19.8841584,20.9333333 19.8841584,20.9333333 19.8841584,20.9333333 L19.8841584,20.9333333 Z"/>
  </g>
</svg>
