<svg height="24" viewBox="0 0 24 24" width="24" xmlns="http://www.w3.org/2000/svg" xmlns:xlink="http://www.w3.org/1999/xlink"><defs><path id="a" d="m18.0936702.51618883c-1.3535196-.31237771-3.5784068-.51618883-6.0936702-.51618883-2.51526336 0-4.74015063.20381112-6.09367021.51618883-2.69866366.56629766-4.8238433 2.6914773-5.39014096 5.39014096-.31237771 1.35351958-.51618883 3.57840685-.51618883 6.09367021 0 2.5152634.20381112 4.7401506.51618883 6.0936702.56629766 2.6986637 2.6914773 4.8238433 5.39014096 5.390141 1.35351958.3123777 3.57840685.5161888 6.09367021.5161888 2.5152634 0 4.7401506-.2038111 6.0936702-.5161888 2.6986637-.5662977 4.8238433-2.6914773 5.390141-5.390141.3123777-1.3535196.5161888-3.5784068.5161888-6.0936702 0-2.51526336-.2038111-4.74015063-.5161888-6.09367021-.5662977-2.69866366-2.6914773-4.8238433-5.390141-5.39014096z"/><mask id="b" fill="#fff"><use fill="#fff" fill-rule="evenodd" xlink:href="#a"/></mask></defs><g fill="none" fill-rule="evenodd"><use fill="#ececea" xlink:href="#a"/><path d="m12.5476718 19v-6.3771784h2.0720621l.3104213-2.4961177h-2.3824834v-1.58978551c0-.72097544.1929269-1.21230805 1.1893792-1.21230805h1.262949v-2.22653707c-.2197783-.03027549-.9736364-.09807327-1.8507317-.09807327-1.8314856 0-3.0849667 1.15948697-3.0849667 3.28972221v1.83698169h-2.0643016v2.4961177h2.0643016v6.3771784z" fill="#101820" fill-rule="nonzero" mask="url(#b)" opacity=".4"/></g></svg>