<svg height="24" viewBox="0 0 24 24" width="24" xmlns="http://www.w3.org/2000/svg" xmlns:xlink="http://www.w3.org/1999/xlink"><defs><path id="a" d="m18.0936702.51618883c-1.3535196-.31237771-3.5784068-.51618883-6.0936702-.51618883-2.51526336 0-4.74015063.20381112-6.09367021.51618883-2.69866366.56629766-4.8238433 2.6914773-5.39014096 5.39014096-.31237771 1.35351958-.51618883 3.57840685-.51618883 6.09367021 0 2.5152634.20381112 4.7401506.51618883 6.0936702.56629766 2.6986637 2.6914773 4.8238433 5.39014096 5.390141 1.35351958.3123777 3.57840685.5161888 6.09367021.5161888 2.5152634 0 4.7401506-.2038111 6.0936702-.5161888 2.6986637-.5662977 4.8238433-2.6914773 5.390141-5.390141.3123777-1.3535196.5161888-3.5784068.5161888-6.0936702 0-2.51526336-.2038111-4.74015063-.5161888-6.09367021-.5662977-2.69866366-2.6914773-4.8238433-5.390141-5.39014096z"/><mask id="b" fill="#fff"><use fill="#fff" fill-rule="evenodd" xlink:href="#a"/></mask></defs><g fill="none" fill-rule="evenodd"><use fill="#ececea" xlink:href="#a"/><path d="m7.00516987 16.1547532v-6.93807692h2.15653846v6.93807692zm1.07874375-7.88663076c-.69118269 0-1.25061058-.56033654-1.25061058-1.25061058 0-.68956731.55942789-1.24990385 1.25061058-1.24990385.68936539 0 1.24960096.56033654 1.24960096 1.24990385 0 .69027404-.56023557 1.25061058-1.24960096 1.25061058zm9.15437448 7.88663076h-2.154923v-3.3740336c0-.8049664-.0147404-1.8398222-1.1204712-1.8398222-1.1221875 0-1.294024.8765481-1.294024 1.7815673v3.4322885h-2.1548221v-6.93817788h2.0686009v.94792788h.0286731c.2877404-.54539423.9911394-1.12057211 2.0402308-1.12057211 2.1835961 0 2.5867355 1.43698561 2.5867355 3.30507691z" fill="#101820" fill-rule="nonzero" mask="url(#b)" opacity=".4"/></g></svg>