<svg xmlns="http://www.w3.org/2000/svg" width="286" height="56" viewBox="0 0 286 56">
  <g transform="translate(37 4)">
    <path d="M10.5981864,24.1143512 C10.5981864,18.4137707 13.7111943,16.3840398 16.6231828,16.3840398 C20.19686,16.3840398 22.5979243,19.467777 22.5979243,24.0612315 C22.5979243,29.3005097 19.5435471,31.6405712 16.5226731,31.6405712 C12.4492395,31.6405712 10.5981864,27.7348768 10.5981864,24.1143512 Z M18.0582375,9.67698104 C13.808912,9.67698104 11.349217,11.5892896 10.1626445,12.9088943 C10.0202558,11.7710148 9.27201714,10.2948468 6.34886091,10.2948468 L0,10.2948468 L0,16.9487857 L2.60208371,16.9487857 C3.04320948,16.9487857 3.18559818,17.0885745 3.18559818,17.5303065 L3.18559818,47.914764 L10.7517429,47.914764 L10.7517429,36.5108075 C10.7517429,36.2032723 10.746159,35.9153077 10.7377832,35.6580966 C11.9187718,36.7428565 14.1774475,38.2413906 17.7036618,38.2413906 C25.0994983,38.2413906 30.2729546,32.3702681 30.2729546,23.9605837 C30.2729546,15.4167024 25.3619403,9.67698104 18.0582375,9.67698104 Z"/>
    <path d="M40.4339238,30.4409052 L40.4339238,14.3400503 C40.4339238,11.6197635 39.1245062,10.2945672 36.4414565,10.2945672 L29.6793891,10.2945672 L29.6793891,16.9485063 L32.2842648,16.9485063 C32.7225984,16.9485063 32.8649871,17.0910906 32.8649871,17.5300269 L32.8649871,33.5749664 C32.8649871,36.33719 34.1325258,37.6204494 36.8490789,37.6204494 L43.6195223,37.6204494 L43.6195223,31.0252218 L41.0146466,31.0252218 C40.5958561,31.0252218 40.4339238,30.8574755 40.4339238,30.4409052"/>
    <path d="M58.6574439 31.6405712C54.5951783 31.6405712 52.7357493 27.7348768 52.7357493 24.1143512 52.7357493 18.4137707 55.8487572 16.3840398 58.7635377 16.3840398 62.3372147 16.3840398 64.7382792 19.467777 64.7382792 24.0612315 64.7382792 29.3005097 61.6866939 31.6405712 58.6574439 31.6405712M60.2013843 9.67698104C55.9464747 9.67698104 53.4923636 11.5892896 52.3002075 12.9088943 52.1606105 11.7710148 51.4151637 10.2948468 48.4920076 10.2948468L42.1403547 10.2948468 42.1403547 16.9487857 44.7424386 16.9487857C45.1807722 16.9487857 45.3231609 17.0885745 45.3231609 17.5303065L45.3231609 47.914764 52.8948894 47.914764 52.8948894 36.5108075C52.8948894 36.2032723 52.8865137 35.9153077 52.878138 35.6580966 54.0535428 36.7428565 56.320594 38.2413906 59.8440164 38.2413906 67.2426452 38.2413906 72.4105173 32.3702681 72.4105173 23.9605837 72.4105173 15.4167024 67.5022948 9.67698104 60.2013843 9.67698104M80.9421132 20.0165873C81.7629422 17.3354412 83.8150148 15.8145408 86.651621 15.8145408 88.92984 15.8145408 90.6831756 17.5507157 90.9930803 20.0165873L80.9421132 20.0165873zM86.651621 9.67781977C78.4991697 9.67781977 72.798038 15.5517382 72.798038 23.9614224 72.798038 32.2341139 78.9486716 38.2422294 87.4249869 38.2422294 94.0921286 38.2422294 98.165562 34.2890068 98.338662 34.1212604L98.6429831 33.8193171 95.3457077 28.3423983 94.8571188 28.8064965C94.8236157 28.8316585 91.833453 31.591086 87.8828644 31.591086 84.0914163 31.591086 81.3162327 29.2733905 80.6601278 25.638886L98.6038961 25.638886 98.6457752 25.1412386C98.6597348 25.0741399 98.8077074 23.4609792 98.8077074 22.6725712 98.8077074 14.9003232 93.9218207 9.67781977 86.651621 9.67781977zM112.834949 31.6405711C109.236144 31.6405711 106.90767 28.6239325 106.90767 23.9605837 106.90767 19.4258404 109.33107 16.3840398 112.93825 16.3840398 117.028436 16.3840398 118.862737 20.1611286 118.862737 23.9102598 118.862737 29.6136361 115.746937 31.6405711 112.834949 31.6405711M126.328372 30.4411848L126.328372 4.0518864C126.328372 1.33159957 125.002203.00640331151 122.282858.00640331151L115.52079.00640331151 115.52079 6.66313809 118.125666 6.66313809C118.564 6.66313809 118.706389 6.80292672 118.706389 7.24465883L118.706389 12.014247C117.589614 11.0049731 115.409113 9.67698103 111.65396 9.67698103 104.31117 9.67698103 99.1879688 15.5508995 99.1879688 23.9605837 99.1879688 32.5044651 104.096191 38.2413906 111.399894 38.2413906 115.573837 38.2413906 117.980485 36.3011245 119.15589 34.9479704 119.309447 36.1277864 120.071645 37.6207292 122.902667 37.6207292L129.458131 37.6207292 129.458131 31.0255012 126.909095 31.0255012C126.490304 31.0255012 126.328372 30.8577549 126.328372 30.4411848M146.296014 9.93391257C143.146711 9.93391257 140.248682 11.7539606 138.52885 14.6531769L138.52885 14.0297195C138.52885 11.5526649 137.163594 10.2945672 134.483336 10.2945672L127.978127 10.2945672 127.978127 16.9485063 130.58021 16.9485063C131.018544 16.9485063 131.163725 17.0882949 131.163725 17.5300269L131.163725 37.6204494 138.729869 37.6204494 138.729869 26.6861826C138.729869 25.2463596 138.914137 23.8596564 139.271505 22.5763966 140.410614 18.8048992 143.437072 17.4629284 145.8856 17.4629284 146.753892 17.4629284 147.384869 17.5551889 147.396037 17.5579846L148.027014 17.653041 148.027014 10.1212293 147.566345 10.0429477C147.544009 10.0373561 146.901864 9.93391257 146.296014 9.93391257M158.797183 30.4409052L158.797183 14.3400503C158.797183 11.6197635 157.49335 10.2945672 154.8103 10.2945672L148.69317 10.2945672 148.69317 16.9485063 150.647525 16.9485063C151.08865 16.9485063 151.228247 17.0910906 151.228247 17.5300269L151.228247 33.5749664C151.228247 36.33719 152.498577 37.6204494 155.220714 37.6204494L161.985574 37.6204494 161.985574 31.0252218 159.377905 31.0252218C158.959116 31.0252218 158.797183 30.8574755 158.797183 30.4409052"/>
    <path d="M187.363149 10.2951264L183.32601 10.2951264C180.966825 10.2951264 179.702079 11.1142878 178.95384 13.1244483L174.02049 26.9215866C173.850182 27.4332131 173.691042 28.0063464 173.554238 28.5571136 173.411849 28.0063464 173.24154 27.4248257 173.054481 26.9131992L168.121131 13.1216526C167.364516 11.0891258 166.141649 10.2951264 163.751753 10.2951264L159.457755 10.2951264 159.457755 16.9490654 160.571738 16.9490654C161.163629 16.9490654 161.353479 17.150361 161.493077 17.519403L169.12902 37.6210086 177.638838 37.6210086 185.274782 17.519403C185.414378 17.150361 185.609814 16.9490654 186.201704 16.9490654L187.363149 16.9490654 187.363149 10.2951264zM194.684161 20.0165873C195.513366 17.3354412 197.557063 15.8145408 200.390877 15.8145408 202.674681 15.8145408 204.425224 17.5507157 204.735129 20.0165873L194.684161 20.0165873zM200.390877 9.67781977C192.241218 9.67781977 186.542878 15.5517382 186.542878 23.9614224 186.542878 32.2341139 192.687928 38.2422294 201.164244 38.2422294 207.834177 38.2422294 211.910403 34.2890068 212.08071 34.1212604L212.387823 33.8193171 209.098923 28.3423983 208.596375 28.8064965C208.571248 28.8316585 205.564333 31.591086 201.627705 31.591086 197.833465 31.591086 195.058281 29.2733905 194.402176 25.638886L212.351527 25.638886 212.393407 25.1412386C212.401783 25.0741399 212.55534 23.4609792 212.55534 22.6725712 212.55534 14.9003232 207.666661 9.67781977 200.390877 9.67781977z"/>
    <polygon points="39.916 .008 33.171 .008 33.171 7.124 39.916 7.124"/>
    <polygon points="158.283 .008 151.535 .008 151.535 7.124 158.283 7.124"/>
  </g>
</svg>
