<svg height="386" width="736" xmlns="http://www.w3.org/2000/svg"><g fill="none" fill-rule="evenodd" opacity=".28" stroke="#006c5b" stroke-width="1.5"><path d="m404 1h238v52h-238z" stroke-linecap="round"/><path d="m373.375 16.478v20.48l15.689-10.24z"/><g stroke-linecap="round"><path d="m416 33.077 11.499-11.682c6.044-6.14 15.92-6.218 22.061-.174l.174.174 11.034 11.21c6.044 6.14 15.921 6.218 22.061.174l.174-.174 11.034-11.21c6.044-6.14 15.921-6.218 22.061-.174l.175.174 11.034 11.21c6.043 6.14 15.92 6.218 22.06.174.06-.058.117-.116.175-.174l11.034-11.21c6.044-6.14 15.92-6.218 22.06-.174.06.058.117.116.175.174l11.034 11.21c6.044 6.14 15.92 6.218 22.061.174l.174-.174 5.214-5.297m-269.294-26.308h52v52h-52z"/><path d="m765 53h-128v227h128z"/><path d="m765 53h-128v31.86h128z"/></g><path d="m749 68.93h-96" stroke-linecap="square"/><path d="m737 124.684c6.627 0 12-5.349 12-11.947s-5.373-11.948-12-11.948-12 5.35-12 11.948 5.373 11.947 12 11.947zm0 35.842c6.627 0 12-5.349 12-11.947s-5.373-11.947-12-11.947-12 5.349-12 11.947 5.373 11.947 12 11.947zm-36-35.842c6.627 0 12-5.349 12-11.947s-5.373-11.948-12-11.948-12 5.35-12 11.948 5.373 11.947 12 11.947zm0 35.842c6.627 0 12-5.349 12-11.947s-5.373-11.947-12-11.947-12 5.349-12 11.947 5.373 11.947 12 11.947zm-36-35.842c6.627 0 12-5.349 12-11.947s-5.373-11.948-12-11.948-12 5.35-12 11.948 5.373 11.947 12 11.947zm0 35.842c6.627 0 12-5.349 12-11.947s-5.373-11.947-12-11.947-12 5.349-12 11.947 5.373 11.947 12 11.947zm72 35.842c6.627 0 12-5.349 12-11.947s-5.373-11.947-12-11.947-12 5.349-12 11.947 5.373 11.947 12 11.947zm0 35.843c6.627 0 12-5.35 12-11.948s-5.373-11.947-12-11.947-12 5.349-12 11.947 5.373 11.948 12 11.948zm-36-35.843c6.627 0 12-5.349 12-11.947s-5.373-11.947-12-11.947-12 5.349-12 11.947 5.373 11.947 12 11.947zm0 35.843c6.627 0 12-5.35 12-11.948s-5.373-11.947-12-11.947-12 5.349-12 11.947 5.373 11.948 12 11.948zm0 35.842c6.627 0 12-5.35 12-11.948s-5.373-11.947-12-11.947-12 5.349-12 11.947c0 6.599 5.373 11.948 12 11.948zm-36-71.685c6.627 0 12-5.349 12-11.947s-5.373-11.947-12-11.947-12 5.349-12 11.947 5.373 11.947 12 11.947zm0 35.843c6.627 0 12-5.35 12-11.948s-5.373-11.947-12-11.947-12 5.349-12 11.947 5.373 11.948 12 11.948z" stroke-linecap="round"/><g stroke-linecap="round" transform="matrix(-1 0 0 1 765 1)"><path d="m133 52h338v227h-338z"/><path d="m133 52h338v15.93h-338z"/><g stroke-linejoin="round"><path d="m455 52h16v15.93z"/><path d="m455 52h16l-16 15.93z"/></g><path d="m128 255h320v143h-320z"/><rect height="7.944" rx="3.972" width="288" x="128" y="293.729"/><rect height="7.944" rx="3.972" width="152" x="128" y="293.729"/><rect height="7.944" rx="3.972" width="288" x="128" y="317.563"/><rect height="7.944" rx="3.972" width="256" x="128" y="317.563"/><rect height="7.944" rx="3.972" width="288" x="128" y="341.396"/><rect height="7.944" rx="3.972" width="88" x="128" y="341.396"/><path d="m364 308h400v80h-400z"/><rect height="40" rx="20" width="232" x="513" y="331"/><rect height="24" rx="12" width="24" x="712" y="339"/><path d="m364 302h243v72h-243z"/><path d="m364 302h109v72h-109z"/></g><path d="m400 340h-80.165" stroke-linecap="square"/><path d="m401 256h-203v48h203z" stroke-linecap="round"/></g></svg>