<svg height="379" width="721" xmlns="http://www.w3.org/2000/svg"><g transform="matrix(-1 0 0 1 720 1)" stroke="#b1692a" stroke-width="1.5" fill="none" fill-rule="evenodd" opacity=".4" stroke-linecap="round"><path d="M140 0h180v320H140z"/><path d="M148 96h164v56H148zm0 56h164v56H148zm0 56h164v56H148z"/><path d="M164 112h24v24h-24zm0 56h24v24h-24zm0 56h24v24h-24z"/><rect height="8" rx="4" width="100" x="196" y="121"/><rect height="8" rx="4" width="100" x="196" y="177"/><rect height="8" rx="4" width="100" x="196" y="233"/><rect height="8" rx="4" width="32" x="196" y="121"/><rect height="8" rx="4" width="56" x="196" y="177"/><rect height="8" rx="4" width="56" x="196" y="233"/><path d="M148 264h164v56H148z"/><path d="M164 280h24v24h-24z"/><rect height="8" rx="4" width="100" x="196" y="289"/><rect height="8" rx="4" width="56" x="196" y="289"/><path d="M140 0h180v80H140z"/><circle cx="230" cy="40" r="24"/><g transform="translate(308 88)"><path d="M314 180H155v48H12V0h302z"/><rect height="8" rx="4" width="56" x="22" y="44"/><rect height="36" rx="6" width="120" x="148" y="68"/><circle cx="8" cy="48" r="8"/><rect height="8" rx="4" width="96" x="22" y="116"/><circle cx="8" cy="120" r="8"/><circle cx="282" cy="72" r="8"/><rect height="8" rx="4" width="120" x="148" y="140"/><circle cx="282" cy="144" r="8"/><path d="M12 0h302v16H12z"/><g stroke-linejoin="round"><path d="M298 0h16v16z"/><path d="M298 0h16l-16 16z"/></g></g><path d="M28 289h296v88H28z"/><rect height="8" rx="4" width="56" x="62" y="305"/><rect height="8" rx="4" width="56" x="53" y="329"/><circle cx="48" cy="309" r="8"/><rect height="8" rx="4" width="56" x="62" y="353"/><circle cx="48" cy="357" r="8"/><circle cx="123" cy="333" r="8"/><path d="M75 289h65v-64H75zm-75 0h65v-64H0z"/><path d="M52.45 259.216L41.664 270l-27-27M94 270l27-27m0 27l-27-27m-19 46H65v-64h10zm598-21H434v52h239zm31.375 14.093l-17.81 11.625 17.81 11.625z"/><path d="M661 300.077l-11.499-11.682c-6.044-6.14-15.92-6.218-22.061-.174a15.6 15.6 0 0 0-.174.174l-11.034 11.21c-6.044 6.14-15.921 6.218-22.061.174a15.597 15.597 0 0 1-.174-.174l-11.034-11.21c-6.044-6.14-15.921-6.218-22.061-.174l-.175.174-11.034 11.21c-6.043 6.14-15.92 6.218-22.06.174a15.597 15.597 0 0 1-.175-.174l-11.034-11.21c-6.044-6.14-15.92-6.218-22.06-.174-.06.058-.117.116-.175.174l-11.034 11.21c-6.044 6.14-15.92 6.218-22.061.174a15.597 15.597 0 0 1-.174-.174l-5.214-5.297M725 268h-52v52h52z"/></g></svg>