<svg height="24" viewBox="0 0 24 24" width="24" xmlns="http://www.w3.org/2000/svg" xmlns:xlink="http://www.w3.org/1999/xlink"><defs><path id="a" d="m18.0936702.51618883c-1.3535196-.31237771-3.5784068-.51618883-6.0936702-.51618883-2.51526336 0-4.74015063.20381112-6.09367021.51618883-2.69866366.56629766-4.8238433 2.6914773-5.39014096 5.39014096-.31237771 1.35351958-.51618883 3.57840685-.51618883 6.09367021 0 2.5152634.20381112 4.7401506.51618883 6.0936702.56629766 2.6986637 2.6914773 4.8238433 5.39014096 5.390141 1.35351958.3123777 3.57840685.5161888 6.09367021.5161888 2.5152634 0 4.7401506-.2038111 6.0936702-.5161888 2.6986637-.5662977 4.8238433-2.6914773 5.390141-5.390141.3123777-1.3535196.5161888-3.5784068.5161888-6.0936702 0-2.51526336-.2038111-4.74015063-.5161888-6.09367021-.5662977-2.69866366-2.6914773-4.8238433-5.390141-5.39014096z"/><mask id="b" fill="#fff"><use fill="#fff" fill-rule="evenodd" xlink:href="#a"/></mask></defs><g fill="none" fill-rule="evenodd"><use fill="#ececea" xlink:href="#a"/><path d="m9.216 18.096c5.658 0 8.754-4.692 8.754-8.754 0-.132 0-.264-.006-.396.6-.432 1.122-.978 1.536-1.596-.552.246-1.146.408-1.77.486.636-.378 1.122-.984 1.356-1.704-.594.354-1.254.606-1.956.744-.564-.6-1.362-.972-2.244-.972-1.698 0-3.078 1.38-3.078 3.078 0 .24.03.474.078.702-2.556-.126-4.824-1.356-6.342-3.216-.264.456-.414.984-.414 1.548 0 1.068.546 2.01 1.368 2.562-.504-.018-.978-.156-1.392-.384v.042c0 1.488 1.062 2.736 2.466 3.018-.258.072-.528.108-.81.108-.198 0-.39-.018-.576-.054.39 1.224 1.53 2.112 2.874 2.136-1.056.828-2.382 1.32-3.822 1.32-.246 0-.492-.012-.732-.042 1.356.864 2.976 1.374 4.71 1.374" fill="#101820" fill-rule="nonzero" mask="url(#b)" opacity=".4"/></g></svg>