<svg xmlns="http://www.w3.org/2000/svg" width="286" height="56" viewBox="0 0 286 56">
  <g fill="none" transform="translate(23 11)">
    <path fill="#142D51" d="M26.9270352,0.161904762 L21.3307538,0.161904762 L21.3307538,20.3595238 C21.290201,24.5690476 17.8837688,28.0095238 13.6662814,28.0095238 C11.6386432,28.05 9.69211055,27.2 8.27276382,25.7428571 C6.81286432,24.3261905 6.00180905,22.3833333 6.00180905,20.3595238 L6.00180905,0.161904762 L0.405527638,0.161904762 L0.405527638,20.3595238 C0.364974874,23.8809524 1.74376884,27.2809524 4.29859296,29.7095238 C6.77231156,32.2190476 10.138191,33.6357143 13.7068342,33.5952381 C17.2349246,33.6357143 20.6413568,32.2595238 23.1150754,29.7095238 C25.6293467,27.2404762 27.0486935,23.8809524 27.0081407,20.3595238 L27.0081407,0.161904762 L26.9270352,0.161904762 Z"/>
    <polygon fill="#142D51" points="59.248 33.595 59.248 .162 53.611 .162 53.611 22.424 36.66 .162 32.686 .162 32.686 33.595 38.282 33.595 38.282 11.252 55.273 33.595"/>
    <polygon fill="#142D51" points="82.768 .162 63.222 .162 63.222 5.748 70.197 5.748 70.197 33.595 75.793 33.595 75.793 5.748 82.768 5.748"/>
    <path fill="#142D51" d="M113.831608.161904762L108.235327.161904762 108.235327 20.3595238C108.154221 24.5690476 104.626131 27.9285714 100.408643 27.847619 96.3128141 27.7666667 93.0280402 24.447619 92.9063819 20.3595238L92.9063819.161904762 87.3101005.161904762 87.3101005 20.3595238C87.3101005 27.6857143 93.230804 33.5952381 100.570854 33.5952381 107.910905 33.5952381 113.831608 27.6857143 113.831608 20.3595238L113.831608.161904762 113.831608.161904762zM130.863769.161904762C127.335678.121428571 123.929246 1.49761905 121.49608 4.04761905 118.981809 6.51666667 117.562462 9.87619048 117.643568 13.397619L117.643568 20.3595238C117.562462 27.6857143 123.442613 33.6761905 130.782663 33.7571429 137.960503 33.8380952 143.881206 28.2119048 144.165075 21.047619L138.528241 21.047619C138.122714 25.2571429 134.391859 28.3738095 130.174372 27.9690476 126.240754 27.6047619 123.199296 24.3261905 123.199296 20.3595238L123.199296 13.397619C123.199296 9.18809524 126.646281 5.74761905 130.863769 5.74761905 134.83794 5.74761905 138.122714 8.78333333 138.487688 12.7095238L144.08397 12.7095238C143.759548 5.66666667 137.91995.161904762 130.863769.161904762"/>
    <polygon fill="#142D51" points="148.585 .162 154.182 .162 154.182 33.595 148.585 33.595"/>
    <polygon fill="#142D51" points="175.107 33.595 175.107 29.669 162.292 16.879 175.107 4.088 175.107 .162 171.133 .162 154.384 16.879 171.133 33.595"/>
    <path fill="#142D51" d="M180.703116.161904762L184.515075.161904762 184.515075 4.85714286 180.703116 4.85714286 180.703116.161904762zM180.703116 7.89285714L184.515075 7.89285714 184.515075 33.6357143 180.703116 33.6357143 180.703116 7.89285714zM187.51598 7.85238095L191.814573 7.85238095 191.814573.161904762 195.626533.161904762 195.626533 7.89285714 202.317739 7.89285714 202.317739 11.1714286 195.626533 11.1714286 195.626533 26.997619C195.626533 29.0214286 196.843116 30.2761905 198.870754 30.2761905L202.317739 30.2761905 202.317739 33.6357143 197.856935 33.6357143C194.40995 33.6357143 191.814573 31.0857143 191.814573 27.5642857L191.814573 11.1714286 187.51598 11.1714286 187.51598 7.85238095z"/>
    <polygon fill="#8C2232" points="242.594 33.433 209.098 33.433 209.098 0"/>
  </g>
</svg>
